<?xml version="1.0" standalone="no"?>
<svg viewBox="0 0 200 200" xmlns="http://www.w3.org/2000/svg" class="position-absolute top-50 start-50 translate-middle">
                <path fill="#8A3FFC" d="M47.4,-69.7C61.2,-64.9,71.9,-51.3,74.5,-36.6C77.2,-22,71.8,-6.2,69.6,10.1C67.4,26.4,68.4,43.2,60.9,54C53.5,64.8,37.6,69.4,22.6,71.1C7.7,72.7,-6.4,71.3,-22.6,69.8C-38.8,68.3,-57,66.8,-66.8,57C-76.5,47.2,-77.8,29.3,-77,13.1C-76.2,-3.1,-73.2,-17.6,-68.5,-32.7C-63.8,-47.8,-57.4,-63.6,-45.7,-69.4C-34,-75.2,-17,-70.9,-0.1,-70.8C16.8,-70.6,33.6,-74.6,47.4,-69.7Z" transform="translate(100 100)" />
            </svg>