<?xml version="1.0" standalone="no"?>
<svg viewBox="0 0 200 200" xmlns="http://www.w3.org/2000/svg">
  <path fill="#1f56d8" d="M44.7,-68C54,-63.6,54.9,-44.5,58.1,-29C61.2,-13.5,66.7,-1.6,68.3,12.1C69.9,25.9,67.8,41.3,59.1,51C50.4,60.6,35.2,64.4,20.5,67.9C5.7,71.5,-8.6,74.8,-17.5,68.3C-26.5,61.8,-30,45.4,-36.7,33.9C-43.4,22.4,-53.2,15.7,-56.1,7C-59,-1.8,-55.1,-12.6,-49.8,-22.1C-44.4,-31.5,-37.5,-39.7,-29,-44.4C-20.5,-49.2,-10.2,-50.7,3.7,-56.5C17.7,-62.3,35.4,-72.5,44.7,-68Z" transform="translate(100 100)" />
</svg>
